<svg width="96" height="96" viewBox="0 0 96 96" fill="none" xmlns="http://www.w3.org/2000/svg">
<path d="M42 28C42 25.8 42.7833 23.9167 44.35 22.35C45.9167 20.7833 47.8 20 50 20C52.2 20 54.0833 20.7833 55.65 22.35C57.2167 23.9167 58 25.8 58 28C58 30.2 57.2167 32.0833 55.65 33.65C54.0833 35.2167 52.2 36 50 36C47.8 36 45.9167 35.2167 44.35 33.65C42.7833 32.0833 42 30.2 42 28ZM50 96L32 78L38 70L32 62L38 53.5V48.8C34.4 46.6667 31.5 43.7833 29.3 40.15C27.1 36.5167 26 32.4667 26 28C26 21.3333 28.3333 15.6667 33 11C37.6667 6.33333 43.3333 4 50 4C56.6667 4 62.3333 6.33333 67 11C71.6667 15.6667 74 21.3333 74 28C74 32.4667 72.9 36.5167 70.7 40.15C68.5 43.7833 65.6 46.6667 62 48.8V84L50 96ZM34 28C34 31.7333 35.1333 35.0167 37.4 37.85C39.6667 40.6833 42.5333 42.5667 46 43.5V56L41.9 61.8L48 70L42.5 77.1L50 84.6L54 80.6V43.5C57.4667 42.5667 60.3333 40.6833 62.6 37.85C64.8667 35.0167 66 31.7333 66 28C66 23.6 64.4333 19.8333 61.3 16.7C58.1667 13.5667 54.4 12 50 12C45.6 12 41.8333 13.5667 38.7 16.7C35.5667 19.8333 34 23.6 34 28Z" fill="black"/>
</svg>
